Coordinates
version=1
nRows=20
nColumns=34
inDegrees=yes

Units are S.I. units (second, meters, Newtons, ...)
If the header above contains a line with 'inDegrees', this indicates whether rotational values are in degrees (yes) or radians (no).

endheader
time	pelvis_tilt	pelvis_list	pelvis_rotation	pelvis_tx	pelvis_ty	pelvis_tz	hip_flexion_r	hip_adduction_r	hip_rotation_r	knee_angle_r	ankle_angle_r	subtalar_angle_r	mtp_angle_r	hip_flexion_l	hip_adduction_l	hip_rotation_l	knee_angle_l	ankle_angle_l	subtalar_angle_l	mtp_angle_l	lumbar_extension	lumbar_bending	lumbar_rotation	arm_flex_r	arm_add_r	arm_rot_r	elbow_flex_r	pro_sup_r	arm_flex_l	arm_add_l	arm_rot_l	elbow_flex_l	pro_sup_l
      0.00000000	     -0.32888166	      1.74350232	     -2.57796024	     -0.08794823	      1.24544782	     -0.10483914	     -1.91904960	      1.09180353	     -2.46327384	      1.63444044	     -0.12659644	     -7.13282813	      0.00000000	     -3.18572852	     -1.68409918	     -1.80560341	      0.00000000	     -1.15057122	     -4.06438321	      0.00000000	     -7.16229165	      2.84112582	      0.37566426	     11.06826878	     -6.99149154	     39.71035588	     29.89713137	     59.04689941	     16.77962114	    -14.04273265	     12.78235485	    107.24555014	     95.39794525
      0.01666670	     -1.95146443	      2.26663881	     -2.21881246	     -0.08360074	      1.24385059	     -0.10769029	      0.00371698	      0.56642045	     -2.09759369	      2.15980562	      2.30871712	     -7.00143461	      0.00000000	     -1.13073631	     -0.95764131	     -1.60234343	      0.00000000	     -2.37017173	     -2.76259406	      0.00000000	     -4.35829292	      2.99101234	      0.49355449	      9.35627996	     -6.72064766	     35.97817222	     28.38663615	     61.56322208	     18.90122080	    -14.13266791	     11.90603618	    112.53711640	     93.79379647
      0.03333330	     -2.16769922	      2.93224694	     -2.74262321	     -0.07913321	      1.24758690	     -0.10740631	     -0.23171322	     -0.04465210	     -3.00095714	      1.40664361	      1.72313070	     -7.18348639	      0.00000000	     -0.90419982	     -0.36833354	     -2.78684077	      0.00000000	     -3.57906834	     -2.59664268	      0.00000000	     -3.36685536	      2.36011474	      3.58859090	      7.18703921	     -6.64895887	     29.45138471	     27.33492018	     77.51803128	     23.46703164	    -13.59805645	     14.96128998	    112.99795123	     86.94724249
      0.05000000	     -2.14408618	      3.23897691	     -2.86804629	     -0.07767833	      1.24507669	     -0.10572546	     -0.66693638	     -0.30424573	     -2.92512512	      0.83684918	      2.32982378	     -6.73032912	      0.00000000	     -1.04975435	     -0.01599647	     -3.02278311	      0.00000000	     -3.54998526	     -3.54998330	      0.00000000	     -3.10526513	      2.18054657	      3.26154639	      6.57018846	     -6.42368223	     28.16264068	     28.44081647	     79.05064689	     25.64148907	    -14.15522529	     12.90632695	    116.01527050	     86.69837005
      0.06666670	     -2.20130087	      3.37102928	     -3.04330127	     -0.07705077	      1.24283677	     -0.10667778	     -0.70544768	     -0.40000363	     -2.60498821	      0.74953974	      2.30947272	     -7.76575756	      0.00000000	     -1.07014676	      0.17330472	     -3.00032573	      0.00000000	     -3.38066433	     -4.00719527	      0.00000000	     -2.73905537	      2.12270072	      3.69804765	      6.00463740	     -6.19411189	     27.25807872	     28.38678646	     81.05469257	     29.80696635	    -14.89190736	     13.93261761	    117.49850871	     86.67307448
      0.08333330	     -2.32144415	      3.35738929	     -3.23192943	     -0.07521555	      1.24834428	     -0.10376602	     -0.70628678	     -0.28436100	     -2.39503384	      0.62856133	      2.45526202	     -7.93135500	      0.00000000	     -1.07592792	      0.13815749	     -3.07141010	      0.00000000	     -3.13495926	     -4.35089657	      0.00000000	     -2.40336371	      2.15462108	      4.33314206	      5.56094354	     -6.02313910	     27.14863635	     28.06441056	     81.44237472	     32.18989020	    -15.51930260	     13.84682372	    119.56405250	     86.71667362
      0.10000000	     -2.28345828	      3.32227905	     -3.21800588	     -0.07031416	      1.24124991	     -0.10482552	     -1.17473073	     -0.15432006	     -1.52295482	      0.05911897	      2.00157289	     -9.27910224	      0.00000000	     -1.31911294	      0.13932473	     -3.01231523	      0.00000000	     -3.20946863	     -5.37578077	      0.00000000	     -2.27533748	      2.21634861	      5.10402031	      4.62376864	     -5.90779114	     23.94792409	     29.13959682	     86.65039606	     34.80636450	    -16.53825942	     14.58552465	    122.39964556	     87.26851580
      0.11666670	     -2.35419432	      3.33980715	     -3.14601992	     -0.07469501	      1.23995104	     -0.10415840	     -1.17521853	     -0.12358878	     -1.92990943	      0.00000000	      2.06160185	     -9.55246734	      0.00000000	     -1.30532487	      0.18531691	     -3.15116345	      0.00000000	     -2.97266479	     -5.75648153	      0.00000000	     -1.93813106	      2.17186428	      5.38408290	      4.98713167	     -5.92158949	     24.05250458	     28.77029163	     86.95798616	     37.84657531	    -17.43221194	     15.22108141	    124.47782118	     87.34636094
      0.13333330	     -2.40006305	      3.37985216	     -3.09116350	     -0.06983951	      1.24184536	     -0.10330591	     -1.22519780	     -0.10845831	     -1.97142905	      0.00000000	      1.96688487	     -9.85750934	      0.00000000	     -1.33392733	      0.24012306	     -2.88360754	      0.00000000	     -2.72213235	     -5.89923155	      0.00000000	     -1.53297899	      2.13689472	      5.93084386	      4.86621785	     -6.08205597	     24.07520124	     28.65416132	     87.19541068	     40.17236959	    -18.09832677	     15.31553439	    126.65234254	     87.37116342
      0.15000000	     -2.43490766	      3.37636875	     -3.11777323	     -0.06733221	      1.23805862	     -0.10322062	     -1.34792672	     -0.06569651	     -1.73142152	      0.00000000	      2.17451707	    -10.20983331	      0.00000000	     -1.46930608	      0.23467385	     -2.60013672	      0.00000000	     -2.31655826	     -6.01052864	      0.00000000	     -1.10963443	      2.26140220	      6.45838061	      4.70915785	     -6.20422791	     24.00057279	     28.71431163	     87.42582363	     42.62094404	    -18.61722716	     15.19861987	    128.96659879	     87.34587826
      0.16666670	     -2.51347882	      3.40955302	     -3.11409401	     -0.06336929	      1.24263942	     -0.10436359	     -1.43480125	     -0.11471988	     -1.48729862	      0.00000000	      2.31120729	    -10.37687224	      0.00000000	     -1.59013228	      0.27928729	     -2.36173764	      0.00000000	     -2.14461457	     -5.94317023	      0.00000000	     -0.76190274	      2.42762757	      6.59800646	      4.46074182	     -6.40773748	     23.79091019	     28.81666652	     87.66050852	     44.60849831	    -19.13803826	     15.04392809	    130.67259370	     87.28813840
      0.18333330	     -2.68969836	      3.32067914	     -3.23128989	     -0.06114031	      1.24291869	     -0.10495311	     -1.35058363	     -0.00531156	     -1.20902843	      0.00000000	      2.54322125	    -10.37125496	      0.00000000	     -1.54355402	      0.19570461	     -2.12277806	      0.00000000	     -1.79653246	     -5.90622324	      0.00000000	     -0.26247207	      3.05879685	      7.02176334	      4.03106326	     -6.68413304	     23.69251863	     28.65394357	     87.74688804	     46.08062869	    -19.61657689	     14.54619195	    131.65525013	     87.24527864
      0.20000000	     -2.99946648	      3.36402316	     -3.29547011	     -0.06128219	      1.23961810	     -0.10560701	     -1.16823953	     -0.07981266	     -1.00098909	      0.00000000	      2.54196902	    -10.54819220	      0.00000000	     -1.30292574	      0.26853920	     -2.18227717	      0.00000000	     -1.45347568	     -5.65075276	      0.00000000	      0.12314573	      3.40944241	      7.21659872	      3.62171491	     -6.94592813	     22.95030510	     29.23952536	     88.16386811	     47.90230068	    -20.05909158	     14.18788654	    134.09898744	     87.10248282
      0.21666670	     -3.35716738	      3.45801034	     -3.33648936	     -0.06418557	      1.23605216	     -0.10263828	     -0.81749230	     -0.13622583	     -0.98347375	      0.00000000	      2.52009205	    -10.70763386	      0.00000000	     -0.92779603	      0.34013040	     -2.33441051	      0.00000000	     -1.20492730	     -5.72398765	      0.00000000	      0.59592977	      3.54528737	      7.33871094	      3.73159392	     -6.96520809	     22.77339888	     29.47095359	     88.31990328	     50.10536158	    -20.68955409	     13.46221880	    134.71103899	     87.03167525
      0.23333330	     -3.72919108	      3.58377332	     -3.29171819	     -0.06314534	      1.23278627	     -0.10241088	     -0.43357046	     -0.22539874	     -0.71792510	      0.00000000	      2.59434363	    -11.15370108	      0.00000000	     -0.53784375	      0.42234018	     -2.45090390	      0.00000000	     -1.03148376	     -5.71618471	      0.00000000	      0.98921203	      3.57131388	      7.47907079	      3.63315325	     -7.12039347	     22.48245731	     29.93960879	     88.64624452	     52.18754735	    -21.21121944	     12.93460202	    135.94040759	     86.94972093
      0.25000000	     -3.99245075	      3.44454977	     -3.28195167	     -0.06313229	      1.23094907	     -0.10132186	     -0.16548793	      0.02950716	     -0.59042210	      0.00000000	      2.72661138	    -11.29239198	      0.00000000	     -0.25460937	      0.17836653	     -2.55874292	      0.00000000	     -0.82919824	     -5.77846657	      0.00000000	      1.36008719	      3.85697790	      7.53632994	      3.67518339	     -7.13725475	     22.41866212	     30.09011765	     88.73668167	     53.74521544	    -21.74221705	     12.43536412	    136.16436228	     86.91615220
      0.26666670	     -4.30894447	      3.56883390	     -3.19817242	     -0.06156634	      1.23574738	     -0.10279098	      0.14349538	     -0.05288093	     -0.38024091	      0.00000000	      2.79285488	    -11.55438506	      0.00000000	      0.08213152	      0.26979429	     -2.64940625	      0.00000000	     -0.76476055	     -5.73019414	      0.00000000	      1.66928428	      3.92415619	      7.69792451	      3.46042986	     -7.24429564	     22.27315741	     30.39853956	     88.92466634	     54.58626866	    -22.12474486	     12.23625099	    136.91815453	     86.91184582
      0.28333330	     -4.74493085	      3.68077418	     -3.08978465	     -0.05775206	      1.23852989	     -0.10480683	      0.48531476	     -0.18152628	     -0.09869118	      0.00000000	      2.52029509	    -11.79907868	      0.00000000	      0.49092145	      0.38667834	     -3.09015854	      0.00000000	     -1.18224965	     -5.67472391	      0.00000000	      2.28652612	      4.05295346	      7.68688458	      2.82315079	     -7.61994670	     21.85303773	     31.11436524	     89.39090451	     54.20545835	    -22.39759796	     12.46071962	    137.98758508	     86.99518744
      0.30000000	     -4.77576574	      3.75125615	     -2.97354168	     -0.05883590	      1.23772317	     -0.10410841	      0.42399233	     -0.29435016	     -0.05637379	      0.00000000	      2.54132770	    -11.79673693	      0.00000000	      0.47433432	      0.50106134	     -3.16558193	      0.00000000	     -1.20366262	     -5.69824315	      0.00000000	      2.44761733	      4.20286959	      7.80386836	      2.58077541	     -7.82100789	     21.81343394	     31.04841996	     89.43801707	     54.30944351	    -22.54721936	     12.37826767	    138.10722871	     87.00285378
      0.31666670	     -4.78485869	      3.77344044	     -2.75162149	     -0.05617260	      1.23726507	     -0.10325854	      0.32108113	     -0.31782521	     -0.00505665	      0.00000000	      2.54305462	    -11.77389708	      0.00000000	      0.43535028	      0.52256548	     -3.21189913	      0.00000000	     -1.22954758	     -5.70596299	      0.00000000	      2.59531962	      4.20691707	      7.95469397	      2.54282104	     -7.85664572	     21.80505798	     31.04329029	     89.44961246	     54.31095083	    -22.62361703	     12.34669188	    138.18761358	     87.00524144
